<svg t="1598321086095" class="icon" viewBox="0 0 1024 1024" version="1.1" xmlns="http://www.w3.org/2000/svg" p-id="2918" width="200" height="200"><path d="M512 512m-512 0a512 512 0 1 0 1024 0 512 512 0 1 0-1024 0Z" fill="#0044F0" p-id="2919"></path><path d="M511.249067 102.229333zM511.249067 102.229333c-215.210667 0-391.509333 165.888-408.302934 376.763734H919.552c-16.7936-210.875733-193.1264-376.763733-408.302933-376.763734z m-58.606934 173.6704v128.6144h-25.8048V283.374933c-5.051733 26.760533-12.0832 54.033067-19.5584 72.6016l-14.472533-23.6544c9.181867-23.415467 17.646933-64.443733 21.230933-94.8224h-20.036266l4.846933-22.186666h27.989333v-46.08h25.8048v46.08h24.132267v22.186666h-24.132267v21.7088l13.277867-5.768533 18.568533 43.656533-20.036266 11.127467-11.810134-32.324267z m49.4592 0.7168l6.485334-20.753066h81.373866v20.753066H502.101333z m61.781334 73.1136l-24.1664 5.768534a860.603733 860.603733 0 0 0-13.755734-65.877334l23.6544-4.8128c5.563733 19.285333 11.400533 46.557867 14.267734 64.9216z m-56.7296-50.926933c6.792533 18.568533 13.277867 41.949867 17.1008 63.419733l-23.586134 6.7584a967.304533 967.304533 0 0 0-16.452266-64.443733l22.9376-5.7344z m115.6096 102.8096h-151.278934l5.5296-21.7088h85.1968l29.934934-92.194133 24.849066 9.147733-28.228266 83.0464h34.030933v21.7088z m-10.615467-133.2224c-17.851733-11.605333-45.124267-36.932267-61.986133-60.8256a260.4032 260.4032 0 0 1-65.6384 60.8256l-13.7216-21.7088c28.672-17.408 60.3136-52.8384 71.850666-77.7216l26.043734 6.997333c-1.4336 3.413333-2.8672 6.519467-4.8128 9.9328 16.384 22.903467 41.7792 46.318933 63.453866 59.357867l-15.189333 23.1424zM573.5424 839.816533c26.8288 0 40.925867-22.2208 40.925867-47.035733 0-20.616533-11.4688-46.455467-40.925867-46.455467-29.115733 0-41.096533 25.838933-41.096533 46.455467 0 24.814933 14.574933 47.035733 41.096533 47.035733zM703.044267 768c0-11.946667-6.075733-21.674667-25.463467-21.674667h-28.9792a3.310933 3.310933 0 0 0-2.3552 0.9216 3.4816 3.4816 0 0 0-0.989867 2.389334v41.198933h32.392534c18.090667 0.034133 25.3952-6.7584 25.3952-22.8352zM164.0448 488.7552L102.4 537.326933c0.8192 20.548267 3.447467 38.126933 7.645867 55.0912l143.837866-103.6288H164.0448zM509.8496 603.477333l66.594133 52.292267h78.336l-142.506666-102.638933-142.472534 102.638933h78.2336zM921.122133 539.886933l-64.2048-50.551466h0.034134l-0.034134-0.546134h-85.6064l142.506667 102.7072c5.12-20.821333 7.7824-29.2864 7.7824-56.490666l-0.477867 4.881066z" fill="#FFFFFF" p-id="2920"></path><path d="M511.829333 921.770667c171.963733 0 319.1808-105.984 379.904-256.170667H131.925333c60.757333 150.152533 207.906133 256.170667 379.904 256.170667z m120.32-179.029334a6.485333 6.485333 0 0 1 6.690134-6.656h39.1168c25.224533 0 38.1952 11.127467 38.1952 32.256 0 23.6544-15.872 32.802133-38.0928 32.802134h-32.802134v48.708266h-13.1072V742.741333z m-63.488-6.894933h9.454934c29.252267 0 48.605867 26.794667 48.708266 56.968533 0 28.8768-18.056533 57.821867-48.708266 57.821867h-9.284267c-30.446933 0-48.7424-29.184-48.64-57.821867 0-30.0032 19.797333-56.968533 48.469333-56.968533z m-141.585066 0.955733h89.668266v10.410667h-40.448v103.5264h-13.346133v-103.5264h-40.209067l4.334934-10.410667z m-20.650667 76.049067c-3.584-10.001067-15.189333-12.458667-25.838933-13.994667-18.432-2.525867-45.499733-6.314667-45.499734-31.744 0-19.217067 15.6672-30.276267 34.235734-31.061333 25.6-1.262933 42.8032 6.417067 49.015466 31.300267l-12.5952 2.4576c-4.7104-18.466133-15.735467-23.893333-35.7376-23.04-13.0048 0.785067-22.801067 7.918933-22.801066 20.343466 0.136533 15.837867 21.1968 18.1248 35.396266 20.138667 15.223467 2.2528 29.934933 7.202133 35.2256 21.060267 6.792533 17.5104-3.447467 34.7136-23.108266 39.8336-16.4864 4.164267-40.209067 3.037867-53.316267-9.8304-6.212267-5.9392-10.274133-14.336-12.526933-24.337067l12.526933-2.4576c1.467733 7.441067 4.676267 13.7216 8.533333 18.1248 9.5232 10.888533 28.603733 11.537067 41.335467 8.157867 10.8544-2.7648 19.3536-12.1856 15.1552-24.951467zM374.613333 495.991467L152.917333 655.7696h77.7216l9.079467-12.014933 215.074133-154.999467h-72.465066zM798.208 655.7696h74.069333l-220.842666-157.047467-9.796267-12.6976-58.709333 2.730667v3.208533l3.208533 8.157867 203.093333 146.3296z" fill="#FFFFFF" p-id="2921"></path></svg>